<svg width="22" height="22" viewBox="0 0 22 22" fill="none" xmlns="http://www.w3.org/2000/svg">
<path d="M20.731 1.26899C20.2387 0.776807 19.5711 0.500305 18.875 0.500305C18.1789 0.500305 17.5113 0.776807 17.019 1.26899L15.862 2.42599L19.574 6.13799L20.731 4.98099C21.2232 4.48872 21.4997 3.82111 21.4997 3.12499C21.4997 2.42888 21.2232 1.76127 20.731 1.26899ZM18.513 7.199L14.801 3.48699L2.65101 15.637C2.03386 16.2538 1.58019 17.0148 1.33101 17.851L0.53101 20.536C0.492387 20.6656 0.489506 20.8032 0.522673 20.9342C0.555841 21.0653 0.623823 21.185 0.719426 21.2806C0.815029 21.3762 0.934698 21.4442 1.06577 21.4773C1.19684 21.5105 1.33444 21.5076 1.46401 21.469L4.14901 20.669C4.98524 20.4198 5.74617 19.9661 6.36301 19.349L18.513 7.199Z" fill="black"/>
</svg>
