<svg width="31" height="30" viewBox="0 0 31 30" fill="none" xmlns="http://www.w3.org/2000/svg">
<rect x="5" y="6.3064" width="19.3939" height="19.231" rx="4.37457" fill="#121212"/>
<g filter="url(#filter0_d_436_4451)">
<path d="M11.1758 23.8807C7.23015 24.6932 5.47174 22.047 5.08575 20.6224C5.01697 20.3685 5.04287 13.124 5.04287 10.2126C5.04287 7.30125 7.87347 5.93868 9.24589 6.0233H20.2252C23.4504 6.29412 24.371 8.81617 24.4282 10.0433V19.6068H24.3424C22.1123 17.1101 21.1259 17.1525 19.6248 17.2794C17.8235 17.6603 16.108 22.8651 11.1758 23.8807Z" fill="#FCE681" stroke="url(#paint0_linear_436_4451)" stroke-width="0.0857759"/>
<g filter="url(#filter1_d_436_4451)">
<path d="M19.6252 17.2794C17.8239 17.6603 16.1942 22.9921 10.9189 23.9654C15.6019 23.4874 23.5247 20.0514 24.4287 19.6491V19.6068H24.3429C22.1127 17.1102 21.1263 17.1525 19.6252 17.2794Z" fill="url(#paint1_linear_436_4451)" shape-rendering="crispEdges"/>
</g>
<path d="M9.88867 13.0275H19.6671" stroke="#121212" stroke-width="1.83346" stroke-miterlimit="10" stroke-linecap="round" stroke-linejoin="round"/>
<path d="M9.88867 16.9389H16.0002" stroke="#121212" stroke-width="1.83346" stroke-miterlimit="10" stroke-linecap="round" stroke-linejoin="round"/>
</g>
<defs>
<filter id="filter0_d_436_4451" x="0.277441" y="0.830128" width="29.7687" height="28.3919" filterUnits="userSpaceOnUse" color-interpolation-filters="sRGB">
<feFlood flood-opacity="0" result="BackgroundImageFix"/>
<feColorMatrix in="SourceAlpha" type="matrix" values="0 0 0 0 0 0 0 0 0 0 0 0 0 0 0 0 0 0 127 0" result="hardAlpha"/>
<feOffset dx="0.42888"/>
<feGaussianBlur stdDeviation="2.57328"/>
<feComposite in2="hardAlpha" operator="out"/>
<feColorMatrix type="matrix" values="0 0 0 0 0 0 0 0 0 0 0 0 0 0 0 0 0 0 0.25 0"/>
<feBlend mode="normal" in2="BackgroundImageFix" result="effect1_dropShadow_436_4451"/>
<feBlend mode="normal" in="SourceGraphic" in2="effect1_dropShadow_436_4451" result="shape"/>
</filter>
<filter id="filter1_d_436_4451" x="9.20343" y="15.8606" width="16.9408" height="10.1634" filterUnits="userSpaceOnUse" color-interpolation-filters="sRGB">
<feFlood flood-opacity="0" result="BackgroundImageFix"/>
<feColorMatrix in="SourceAlpha" type="matrix" values="0 0 0 0 0 0 0 0 0 0 0 0 0 0 0 0 0 0 127 0" result="hardAlpha"/>
<feOffset dy="0.343104"/>
<feGaussianBlur stdDeviation="0.857759"/>
<feComposite in2="hardAlpha" operator="out"/>
<feColorMatrix type="matrix" values="0 0 0 0 0 0 0 0 0 0 0 0 0 0 0 0 0 0 0.25 0"/>
<feBlend mode="normal" in2="BackgroundImageFix" result="effect1_dropShadow_436_4451"/>
<feBlend mode="normal" in="SourceGraphic" in2="effect1_dropShadow_436_4451" result="shape"/>
</filter>
<linearGradient id="paint0_linear_436_4451" x1="10.9614" y1="17.1948" x2="19.0731" y2="26.4009" gradientUnits="userSpaceOnUse">
<stop stop-color="#FCE681"/>
<stop offset="0.503559" stop-color="#FCE681"/>
<stop offset="1" stop-color="#FCE681" stop-opacity="0.5"/>
</linearGradient>
<linearGradient id="paint1_linear_436_4451" x1="19.0248" y1="19.7761" x2="20.8684" y2="24.5323" gradientUnits="userSpaceOnUse">
<stop stop-color="#FFE46A"/>
<stop offset="1" stop-color="#FCE681" stop-opacity="0"/>
</linearGradient>
</defs>
</svg>
