<svg width="48" height="46" viewBox="0 0 48 46" fill="none" xmlns="http://www.w3.org/2000/svg">
<rect x="8.01758" y="9.45715" width="30.9091" height="30.6494" rx="6.97198" fill="#121212"/>
<g filter="url(#filter0_d_209_5698)">
<path d="M17.8602 37.4662C11.5717 38.7611 8.76927 34.5437 8.15409 32.2732C8.04447 31.8686 8.08574 20.3226 8.08574 15.6826C8.08574 11.0426 12.597 8.87104 14.7843 9.00591H32.2826C37.4227 9.43754 38.89 13.457 38.9812 15.4128V30.6546H38.8445C35.2901 26.6756 33.718 26.743 31.3257 26.9453C28.4548 27.5523 25.7207 35.8476 17.8602 37.4662Z" fill="#FCE681" stroke="url(#paint0_linear_209_5698)" stroke-width="0.136705"/>
<g filter="url(#filter1_d_209_5698)">
<path d="M31.3258 26.9454C28.455 27.5523 25.8576 36.0499 17.4502 37.6011C24.9137 36.8393 37.5407 31.3631 38.9813 30.7221V30.6546H38.8446C35.2902 26.6756 33.7181 26.743 31.3258 26.9454Z" fill="url(#paint1_linear_209_5698)" shape-rendering="crispEdges"/>
</g>
<path d="M15.8096 20.1688H31.394" stroke="#121212" stroke-width="2.92208" stroke-miterlimit="10" stroke-linecap="round" stroke-linejoin="round"/>
<path d="M15.8096 26.4026H25.5498" stroke="#121212" stroke-width="2.92208" stroke-miterlimit="10" stroke-linecap="round" stroke-linejoin="round"/>
</g>
<defs>
<filter id="filter0_d_209_5698" x="0.490969" y="0.729317" width="47.4447" height="45.2495" filterUnits="userSpaceOnUse" color-interpolation-filters="sRGB">
<feFlood flood-opacity="0" result="BackgroundImageFix"/>
<feColorMatrix in="SourceAlpha" type="matrix" values="0 0 0 0 0 0 0 0 0 0 0 0 0 0 0 0 0 0 127 0" result="hardAlpha"/>
<feOffset dx="0.683527"/>
<feGaussianBlur stdDeviation="4.10116"/>
<feComposite in2="hardAlpha" operator="out"/>
<feColorMatrix type="matrix" values="0 0 0 0 0 0 0 0 0 0 0 0 0 0 0 0 0 0 0.25 0"/>
<feBlend mode="normal" in2="BackgroundImageFix" result="effect1_dropShadow_209_5698"/>
<feBlend mode="normal" in="SourceGraphic" in2="effect1_dropShadow_209_5698" result="shape"/>
</filter>
<filter id="filter1_d_209_5698" x="14.7161" y="24.6841" width="26.9995" height="16.1979" filterUnits="userSpaceOnUse" color-interpolation-filters="sRGB">
<feFlood flood-opacity="0" result="BackgroundImageFix"/>
<feColorMatrix in="SourceAlpha" type="matrix" values="0 0 0 0 0 0 0 0 0 0 0 0 0 0 0 0 0 0 127 0" result="hardAlpha"/>
<feOffset dy="0.546822"/>
<feGaussianBlur stdDeviation="1.36705"/>
<feComposite in2="hardAlpha" operator="out"/>
<feColorMatrix type="matrix" values="0 0 0 0 0 0 0 0 0 0 0 0 0 0 0 0 0 0 0.25 0"/>
<feBlend mode="normal" in2="BackgroundImageFix" result="effect1_dropShadow_209_5698"/>
<feBlend mode="normal" in="SourceGraphic" in2="effect1_dropShadow_209_5698" result="shape"/>
</filter>
<linearGradient id="paint0_linear_209_5698" x1="17.5184" y1="26.8104" x2="30.4465" y2="41.4828" gradientUnits="userSpaceOnUse">
<stop stop-color="#FCE681"/>
<stop offset="0.503559" stop-color="#FCE681"/>
<stop offset="1" stop-color="#FCE681" stop-opacity="0.5"/>
</linearGradient>
<linearGradient id="paint1_linear_209_5698" x1="30.3689" y1="30.9244" x2="33.3071" y2="38.5047" gradientUnits="userSpaceOnUse">
<stop stop-color="#FFE46A"/>
<stop offset="1" stop-color="#FCE681" stop-opacity="0"/>
</linearGradient>
</defs>
</svg>
